Results
version=1
nRows=14
nColumns=24
inDegrees=yes
endheader
time	pelvis_tilt	pelvis_list	pelvis_rotation	pelvis_tx	pelvis_ty	pelvis_tz	hip_flexion_r	hip_adduction_r	hip_rotation_r	knee_angle_r	ankle_angle_r	subtalar_angle_r	mtp_angle_r	hip_flexion_l	hip_adduction_l	hip_rotation_l	knee_angle_l	ankle_angle_l	subtalar_angle_l	mtp_angle_l	lumbar_extension	lumbar_bending	lumbar_rotation
      0.70400000	     -2.98705238	      5.78212557	     11.05955834	      0.06848049	      0.97044983	      0.27997889	     30.99013463	    -10.29274263	    -10.39192982	     -2.45523403	      5.54254648	     -6.58221431	     11.86468128	    -21.22122948	      5.63291100	     11.21939097	     -0.39958910	      8.73534037	     -5.22510928	      9.20089552	     -1.84730668	     -7.03371539	     -2.83629958
      0.70816667	     -3.00591943	      5.74291939	     11.19304128	      0.07442214	      0.96990472	      0.28033934	     30.97263853	    -10.27931058	    -10.30732482	     -2.82694850	      5.63091395	     -6.69266254	     11.85253678	    -21.39276064	      5.46196309	     11.29287345	     -0.67519298	      8.60513158	     -5.17683801	      9.22491163	     -1.81806908	     -6.97183332	     -2.83461951
      0.71233333	     -3.01660685	      5.69898131	     11.31868421	      0.08041409	      0.96940571	      0.28073458	     30.93612822	    -10.24955610	    -10.19785479	     -3.21323589	      5.67072070	     -6.84661197	     11.84205148	    -21.56134743	      5.28657923	     11.35823845	     -0.97209212	      8.45789101	     -5.13755385	      9.25196770	     -1.80072302	     -6.90975373	     -2.87885778
      0.71650000	     -3.01037289	      5.64896739	     11.43895047	      0.08645908	      0.96897149	      0.28116379	     30.83980210	    -10.19416991	     -9.96610851	     -3.54477019	      5.59072436	     -7.24014590	     11.81042155	    -21.74053707	      5.10102752	     11.42121094	     -1.27844126	      8.28543201	     -5.09547334	      9.37345744	     -1.79501694	     -6.81847780	     -3.09477957
      0.72066667	     -3.02169945	      5.57568038	     11.55801249	      0.09258842	      0.96855118	      0.28159493	     30.77215039	    -10.11778355	     -9.82527403	     -3.92465051	      5.47430474	     -7.52541914	     11.79098244	    -21.88578207	      4.89814650	     11.46891903	     -1.61001520	      8.09137078	     -5.06972880	      9.51387067	     -1.74950206	     -6.71672620	     -3.20189162
      0.72483333	     -3.02833618	      5.50573954	     11.66357011	      0.09875573	      0.96816980	      0.28203462	     30.72520051	    -10.04260986	     -9.75961992	     -4.37936346	      5.36829368	     -7.65428259	     11.78861626	    -22.02001046	      4.70679748	     11.49580465	     -1.97626265	      7.90058378	     -5.06499474	      9.54793875	     -1.71270966	     -6.62631218	     -3.22884580
      0.72900000	     -3.03176204	      5.41004440	     11.75894299	      0.10500279	      0.96783959	      0.28252682	     30.62152210	     -9.91514395	     -9.53484749	     -4.73444333	      5.08142064	     -8.13802344	     11.79736030	    -22.14871969	      4.49001113	     11.51819869	     -2.34898798	      7.67725684	     -5.06543219	      9.76085874	     -1.65282538	     -6.49038666	     -3.40867914
      0.73316667	     -3.05343279	      5.29469457	     11.84723407	      0.11133035	      0.96752472	      0.28301259	     30.55852610	     -9.77364174	     -9.41581357	     -5.15050283	      4.82399912	     -8.39321611	     11.81689999	    -22.24684566	      4.26233586	     11.52044426	     -2.73437542	      7.38391610	     -5.05415200	      9.93350503	     -1.56760519	     -6.33605176	     -3.47620509
      0.73733333	     -3.06954968	      5.17752159	     11.92117929	      0.11768735	      0.96725374	      0.28352972	     30.49728967	     -9.61997447	     -9.28961129	     -5.58680565	      4.50624068	     -8.70200377	     11.84657895	    -22.33079564	      4.04045680	     11.50824728	     -3.15931580	      7.09979502	     -5.07092890	     10.11151921	     -1.48475652	     -6.18731572	     -3.54826216
      0.74150000	     -3.04439309	      5.04525508	     11.98219790	      0.12409255	      0.96707637	      0.28407119	     30.38882591	     -9.43566795	     -9.16548573	     -6.02214308	      4.14218196	     -9.09096601	     12.81128830	    -22.43072462	      3.79871633	     11.40386189	     -3.62314760	      6.79526591	     -5.03498816	     14.37606909	     -1.43606666	     -6.01504031	     -3.52142489
      0.74566667	     -3.09369017	      4.90677310	     12.02461375	      0.13055691	      0.96683650	      0.28461944	     30.38561151	     -9.25326817	     -9.06692905	     -6.50863608	      3.76507094	     -9.29146116	     12.80836428	    -22.45128547	      3.58273370	     11.37575847	     -4.09509860	      6.42834247	     -5.11587209	     14.39965153	     -1.29758153	     -5.84331205	     -3.63209914
      0.74983333	     -3.11080911	      4.75740084	     12.05812091	      0.13704489	      0.96668922	      0.28520352	     30.33914326	     -9.04302252	     -8.92316654	     -6.97970424	      3.32457335	     -9.71409650	     12.82166746	    -22.48008913	      3.35470515	     11.32654145	     -4.61103943	      6.08537908	     -5.20597190	     14.48191594	     -1.18298771	     -5.65817176	     -3.70833802
      0.75400000	     -3.12737829	      4.59126845	     12.06699685	      0.14359807	      0.96657938	      0.28579480	     30.31708275	     -8.81508923	     -8.85396721	     -7.50038856	      2.91428514	     -9.87784126	     12.83302949	    -22.49984820	      3.12128251	     11.23421815	     -5.13497405	      5.66116002	     -5.25636686	     14.53489825	     -1.06532101	     -5.44493619	     -3.72727402
      0.75816667	     -3.15015662	      4.41736668	     12.06310332	      0.15016771	      0.96650239	      0.28643823	     30.29774359	     -8.56442694	     -8.69695734	     -8.00877226	      2.42589758	    -10.33027961	     12.87863702	    -22.47968092	      2.89044792	     11.11874232	     -5.72262622	      5.27219199	     -5.33215084	     14.71091342	     -0.92875945	     -5.23082946	     -3.74391699
